<svg version="1.1" id="Layer_1" xmlns="http://www.w3.org/2000/svg" x="0" y="0" viewBox="0 0 768.3 704.6" xml:space="preserve"><style>.st0{fill:none;stroke:#000;stroke-width:12;stroke-linecap:round;stroke-miterlimit:10}</style><path class="st0" d="M33.4 134c0-70.7 57.3-128 128-128"/><path d="M29.4 119.7L11.2 97.5C9 94.8 5 94.4 2.3 96.6s-3.1 6.2-.9 8.9l27.2 33.4c2.2 2.7 6.2 3.1 8.9.9L72 112.1c.6-.5 1.1-1.1 1.5-1.7 1.3-2.2 1.2-5.1-.5-7.2-2.2-2.8-6.2-3.2-8.9-1L42 119.8"/><path class="st0" d="M734.9 570.6c0 70.7-57.3 128-128 128"/><path d="M738.8 584.8l18.2 22.3c2.2 2.7 6.2 3.1 8.9.9s3.1-6.2.9-8.9l-27.2-33.4c-2.2-2.7-6.2-3.1-8.9-.9l-34.4 27.6c-.6.5-1.1 1.1-1.5 1.7-1.3 2.2-1.2 5.1.5 7.2 2.2 2.8 6.2 3.2 8.9 1l22.1-17.6"/></svg>