<svg xmlns="http://www.w3.org/2000/svg" viewBox="0 0 700 700"><path d="M434.4 103.1H265.6c-20.2 0-36.6 16.4-36.6 36.6v419.2c0 21 17.1 38.1 38.1 38.1H433c21 0 38.1-17.1 38.1-38.1V139.7c0-20.2-16.4-36.6-36.7-36.6zm-58.8 16.1c1.9 0 3.4 1.5 3.4 3.4s-1.5 3.4-3.4 3.4-3.4-1.5-3.4-3.4 1.5-3.4 3.4-3.4zm-56.1 0h31c1.9 0 3.4 1.5 3.4 3.4s-1.5 3.4-3.4 3.4h-31c-1.9 0-3.4-1.5-3.4-3.4 0-1.8 1.5-3.4 3.4-3.4zm136.6 440.2c0 12.4-10.1 22.5-22.5 22.5H266.4c-12.4 0-22.5-10.1-22.5-22.5V140.6c0-12.4 10-22.4 22.4-22.4h21.2c1.5 0 2.8 1.1 2.9 2.7l.3 3.5c.6 5.9 5.5 10.4 11.4 10.4h95.8c5.9 0 10.9-4.5 11.4-10.4l.3-3.5c.1-1.5 1.4-2.7 2.9-2.7h21.2c12.4 0 22.4 10 22.4 22.4v418.8z"/></svg>